<?xml version="1.0" encoding="UTF-8"?>
<svg version="1.1" xmlns="http://www.w3.org/2000/svg" width="1667" height="2500">
<path d="M0 0 C4.54712653 0.00681638 9.09422107 -0.00400872 13.64134034 -0.01239584 C21.58112775 -0.02467453 29.52085598 -0.02601365 37.46064963 -0.01984541 C49.26843064 -0.01069708 61.0761576 -0.01883203 72.88393449 -0.03013665 C93.98332611 -0.04974089 115.08269309 -0.05216294 136.18209166 -0.04694145 C154.65157018 -0.04237341 173.12103898 -0.04299696 191.59051719 -0.04878179 C194.07387439 -0.04953868 196.5572316 -0.05029466 199.0405888 -0.05104974 C202.78341013 -0.05219501 206.52623147 -0.0533449 210.26905279 -0.05450898 C245.0390994 -0.06520456 279.8091428 -0.06994899 314.5791904 -0.06203882 C316.54269965 -0.06159306 316.54269965 -0.06159306 318.54587575 -0.0611383 C329.17395766 -0.05868969 339.80203953 -0.05607794 350.43012141 -0.05345416 C391.86930444 -0.04335529 433.30844612 -0.05170417 474.74762359 -0.07494871 C521.37528357 -0.10106173 568.00291915 -0.11385838 614.63058671 -0.10676096 C619.60911252 -0.10604497 624.58763834 -0.10537058 629.56616416 -0.10472052 C631.40473117 -0.1044658 631.40473117 -0.1044658 633.28044095 -0.10420594 C651.72604963 -0.10190975 670.17163556 -0.10984738 688.61723914 -0.12301199 C709.61278181 -0.13797037 730.60827138 -0.13870362 751.60381297 -0.12094108 C763.32968235 -0.11142729 775.05542766 -0.1127114 786.78128858 -0.13017577 C794.64235012 -0.14075538 802.50331829 -0.13644002 810.36437081 -0.12069573 C814.82427763 -0.11216007 819.28394353 -0.10939705 823.74383691 -0.12496505 C915.12253242 -0.42126259 1004.30656663 26.856888 1077.54669585 82.39160402 C1078.17221343 82.86549563 1078.79773101 83.33938723 1079.44220367 83.82763918 C1096.44326195 96.78924601 1112.27885476 111.06767607 1127.42169585 126.14160402 C1128.12334869 126.838584 1128.82500152 127.53556398 1129.54791656 128.25366457 C1134.08400224 132.80377216 1138.36570921 137.51486196 1142.54669585 142.39160402 C1143.39232085 143.35582277 1144.23794585 144.32004152 1145.10919585 145.31347902 C1161.917783 164.81575001 1176.77542188 186.04058141 1189.54669585 208.39160402 C1190.21886138 209.56553713 1190.21886138 209.56553713 1190.90460601 210.76318606 C1215.99149632 254.90083165 1232.4524278 302.77092919 1240.35919585 352.89160402 C1240.55400542 354.11677736 1240.74881499 355.3419507 1240.94952788 356.60425051 C1243.93641316 376.5111172 1244.92502456 396.2756124 1244.85919585 416.39160402 C1244.85737304 417.55313997 1244.85555022 418.71467592 1244.85367217 419.91140993 C1244.80618535 437.92840338 1244.18289244 455.54519608 1241.54669585 473.39160402 C1241.37508941 474.6063843 1241.20348296 475.82116457 1241.02667632 477.07275637 C1229.9722142 553.94028965 1197.44152588 625.92531557 1147.54669585 685.39160402 C1147.13049483 685.89151354 1146.71429382 686.39142305 1146.28548064 686.90648134 C1138.99887342 695.64332533 1131.35504923 703.90114164 1123.28277984 711.91626223 C1121.47447978 713.71376207 1119.67723608 715.52182718 1117.88068023 717.33105715 C1111.78821555 723.4300221 1105.63013111 729.20246934 1098.85358062 734.54394777 C1096.6553567 736.30457415 1094.59673567 738.1495423 1092.54669585 740.07910402 C1030.46785055 795.73981559 943.70668597 826.3792227 861.54669585 833.39160402 C868.00855877 834.4104705 874.47077541 835.39804843 880.9568521 836.25097902 C925.78079925 842.19218886 968.81323082 854.68864925 1009.54669585 874.39160402 C1011.23277085 875.18873908 1012.91896439 875.98562344 1014.6052896 876.78222902 C1041.14559498 889.50254271 1065.71819833 905.8812334 1088.54669585 924.39160402 C1089.49673492 925.14828371 1090.44677398 925.9049634 1091.4256021 926.68457277 C1097.86387991 931.85900657 1103.96971014 937.34803203 1110.01300445 942.97119387 C1111.56445573 944.40805212 1113.12591241 945.83315073 1114.6912271 947.25488527 C1122.41138093 954.2691482 1129.91294259 961.35968149 1136.7146646 969.28222902 C1138.69981173 971.56789949 1140.74709415 973.78861781 1142.79669585 976.01660402 C1148.38010784 982.22144129 1153.4915896 988.75697792 1158.54669585 995.39160402 C1159.08455718 996.09430422 1159.62241851 996.79700441 1160.17657867 997.52099856 C1174.82263136 1016.74024101 1187.35468041 1036.98836053 1198.54669585 1058.39160402 C1198.91987945 1059.09946047 1199.29306304 1059.80731691 1199.67755523 1060.53662356 C1224.29291414 1107.44666261 1238.40017287 1158.79556377 1243.54669585 1211.39160402 C1243.64240874 1212.29572023 1243.73812163 1213.19983645 1243.83673492 1214.13135012 C1244.92189143 1225.80942336 1244.79056643 1237.54870208 1244.79669585 1249.26660402 C1244.79770797 1251.00419481 1244.79770797 1251.00419481 1244.79874053 1252.77688845 C1244.78175258 1271.16690113 1244.17715012 1289.16483428 1241.54669585 1307.39160402 C1241.29726226 1309.15890871 1241.29726226 1309.15890871 1241.0427896 1310.96191652 C1229.68806674 1388.84690446 1196.12070363 1464.52420674 1143.54669585 1523.39160402 C1142.77970367 1524.25785402 1142.01271148 1525.12410402 1141.2224771 1526.01660402 C1139.01396063 1528.49077688 1136.78536657 1530.94468487 1134.54669585 1533.39160402 C1134.07199859 1533.91141848 1133.59730132 1534.43123293 1133.10821929 1534.96679934 C1125.62534937 1543.15282148 1118.17666352 1551.21635406 1109.75763335 1558.45801027 C1107.26545696 1560.63756384 1104.84830917 1562.88933682 1102.42169585 1565.14160402 C1096.06705945 1570.92171166 1089.38537364 1576.1983224 1082.54669585 1581.39160402 C1081.82949371 1581.93864992 1081.11229156 1582.48569582 1080.37335601 1583.04931887 C1017.64281124 1630.70622919 942.90503108 1659.19339713 864.54669585 1666.39160402 C863.5225357 1666.48731691 862.49837554 1666.58302981 861.44318023 1666.68164309 C850.5302747 1667.58511509 839.61622604 1667.63501174 828.67169585 1667.64160402 C827.65913726 1667.64227877 826.64657867 1667.64295351 825.60333648 1667.6436487 C807.74191065 1667.62485571 790.26352829 1666.7801791 772.54669585 1664.39160402 C770.69431304 1664.14217043 770.69431304 1664.14217043 768.80450835 1663.88769777 C694.66205845 1653.48309202 623.46418552 1622.97606711 565.54669585 1575.39160402 C564.72612701 1574.7175049 564.72612701 1574.7175049 563.88898101 1574.02978762 C552.01782885 1564.22469593 540.76503195 1553.79699283 529.88190093 1542.91211184 C528.35432169 1541.38673689 526.81886003 1539.86959731 525.28302398 1538.35254152 C518.9193492 1532.02448278 513.13252902 1525.42814272 507.54669585 1518.39160402 C505.98743781 1516.5555126 504.42565653 1514.72155438 502.85919585 1512.89160402 C454.07637821 1454.23158528 422.72415956 1379.58930555 413.48151031 1303.98633059 C413.39082526 1303.25246126 413.30014022 1302.51859194 413.20670715 1301.76248415 C412.98564704 1299.9723209 412.7660219 1298.18198055 412.54669585 1296.39160402 C412.54629567 1297.08774541 412.54589549 1297.7838868 412.54548318 1298.50112338 C412.50177506 1374.35029422 412.45435233 1450.19946239 412.38771453 1526.04861696 C412.38671896 1527.18299096 412.3857234 1528.31736495 412.38469766 1529.48611391 C412.36303529 1554.14362897 412.34071232 1578.80114338 412.31770957 1603.45865722 C412.30643181 1615.5520287 412.2952999 1627.64540031 412.28424468 1639.73877199 C412.28314212 1640.94215908 412.28203955 1642.14554617 412.28090357 1643.38539953 C412.24528349 1682.33720585 412.21928084 1721.28901131 412.19830617 1760.24082803 C412.17668718 1800.29431876 412.14528449 1840.34779034 412.10170472 1880.40126348 C412.09554317 1886.0684143 412.08949257 1891.73556523 412.08350959 1897.40271624 C412.08232871 1898.51800944 412.08114783 1899.63330265 412.07993116 1900.78239262 C412.06126506 1918.68054485 412.05280485 1936.57868781 412.04823461 1954.47684858 C412.04341101 1972.50383318 412.02766071 1990.53078271 412.00103019 2008.5577485 C411.98556507 2019.24629173 411.97820417 2029.93476567 411.98292656 2040.62331945 C411.98526256 2047.7914144 411.97653969 2054.95944456 411.95937174 2062.12751909 C411.94993335 2066.19375107 411.94477944 2070.2598399 411.95330023 2074.32607729 C411.98391352 2090.49310874 411.60020403 2106.50915636 410.15849414 2122.61900766 C410.09678403 2123.30994563 410.03507392 2124.00088359 409.97149381 2124.71275906 C401.98019421 2212.14165243 364.86326896 2294.7473627 277.73419585 2390.76660402 C274.74439112 2393.33909376 271.82459692 2395.97150517 268.92169585 2398.64160402 C262.72047011 2404.22837904 256.16491313 2409.31417182 249.54669585 2414.39160402 C248.91457183 2414.88064211 248.28244781 2415.3696802 247.63116851 2415.87353762 C237.6111168 2423.61366817 227.29283916 2430.69869355 216.54669585 2437.39160402 C215.94599273 2437.76849367 215.3452896 2438.14538332 214.72638335 2438.53369387 C154.21985512 2476.33331591 81.82228944 2500.11956066 10.0740396 2500.62988527 C8.34974982 2500.64457605 8.34974982 2500.64457605 6.59062591 2500.65956362 C-19.34613632 2500.83493958 -44.82087404 2500.57239381 -70.45330415 2496.39160402 C-71.11686921 2496.28505495 -71.78043427 2496.17850588 -72.46410737 2496.06872805 C-150.4067723 2483.46274669 -225.49822495 2448.66892446 -283.6525229 2394.94629152 C-285.80446225 2392.98343471 -287.98009222 2391.0750704 -290.18767915 2389.17676027 C-295.00395786 2384.97478257 -299.50863533 2380.48285545 -304.01580415 2375.95410402 C-304.82726899 2375.14650637 -305.63873383 2374.33890871 -306.47478852 2373.5068384 C-311.34265036 2368.63111883 -315.9807903 2363.63075325 -320.45330415 2358.39160402 C-321.29892915 2357.42738527 -322.14455415 2356.46316652 -323.01580415 2355.46972902 C-379.15737454 2290.33111209 -412.81977982 2208.69620165 -421.45330415 2123.39160402 C-421.54901704 2122.50360109 -421.64472993 2121.61559816 -421.74334321 2120.70068606 C-422.85036471 2108.84285902 -422.69720871 2096.914898 -422.70330415 2085.01660402 C-422.70397889 2083.83453371 -422.70465363 2082.6524634 -422.70534882 2081.43457277 C-422.6885633 2062.90084283 -422.11659333 2044.75938679 -419.45330415 2026.39160402 C-419.28701508 2025.21485109 -419.12072602 2024.03809816 -418.9493979 2022.82568606 C-413.02216999 1982.16380498 -401.15302282 1942.48367206 -383.45330415 1905.39160402 C-382.99568696 1904.42948 -382.53806977 1903.46735598 -382.0665854 1902.47607668 C-369.18016221 1875.59777733 -353.36014038 1849.49995942 -334.45330415 1826.39160402 C-333.73529633 1825.49570559 -333.01728852 1824.59980715 -332.2775229 1823.67676027 C-330.02858775 1820.89255459 -327.74501123 1818.14071677 -325.45330415 1815.39160402 C-324.82791497 1814.63811426 -324.82791497 1814.63811426 -324.18989167 1813.86940249 C-316.78235005 1804.97342108 -308.97455351 1796.59620789 -300.76214204 1788.43969973 C-298.88141887 1786.56977262 -297.01173596 1784.68927764 -295.14275727 1782.80761965 C-288.21765255 1775.87494638 -281.15753864 1769.45839041 -273.45330415 1763.39160402 C-272.42527521 1762.52878605 -271.40186101 1761.66037949 -270.3868979 1760.78222902 C-261.81011109 1753.42686256 -252.70337576 1746.8680998 -243.45330415 1740.39160402 C-242.82053559 1739.94816652 -242.18776704 1739.50472902 -241.53582368 1739.04785402 C-182.29959862 1697.85124002 -111.36863734 1672.93088661 -39.45330415 1667.39160402 C-45.8677458 1666.3780398 -52.28154493 1665.39559485 -58.7228354 1664.56738527 C-102.78698373 1658.8304086 -145.29026752 1646.5430636 -185.45330415 1627.39160402 C-186.77926606 1626.76149416 -186.77926606 1626.76149416 -188.13201508 1626.11865481 C-207.15412661 1617.01275584 -225.1118763 1606.37851983 -242.45330415 1594.39160402 C-243.02709809 1593.99795656 -243.60089204 1593.6043091 -244.19207368 1593.19873293 C-253.37417159 1586.87650556 -262.03450197 1579.99989761 -270.62273774 1572.8974634 C-272.2812922 1571.53310438 -273.95084781 1570.18474626 -275.6290854 1568.84472902 C-280.56208257 1564.88741455 -285.16254154 1560.82027016 -289.5665854 1556.28222902 C-291.41815413 1554.42682682 -293.33584088 1552.71874829 -295.32830415 1551.01660402 C-302.29644866 1545.00675051 -308.71585764 1538.42324306 -314.6915854 1531.43066652 C-316.64936153 1529.16468173 -318.67559363 1526.97016908 -320.70330415 1524.76660402 C-326.28671613 1518.56176676 -331.39819789 1512.02623013 -336.45330415 1505.39160402 C-336.99116547 1504.68890383 -337.5290268 1503.98620363 -338.08318696 1503.26220949 C-352.73048474 1484.04133318 -365.25755593 1463.79320908 -376.45330415 1442.39160402 C-376.91833344 1441.51600832 -377.38336274 1440.64041262 -377.86248383 1439.73828371 C-385.96720663 1424.43062323 -392.47972243 1408.6410571 -398.45330415 1392.39160402 C-398.82584321 1391.37872316 -399.19838227 1390.36584231 -399.5822104 1389.32226809 C-409.16646533 1362.85946826 -415.52356637 1335.23486238 -419.45330415 1307.39160402 C-419.61701508 1306.25722902 -419.78072602 1305.12285402 -419.9493979 1303.95410402 C-424.91581083 1267.83473726 -424.65933831 1229.46491161 -419.45330415 1193.39160402 C-419.20387055 1191.62429934 -419.20387055 1191.62429934 -418.9493979 1189.82129152 C-407.59597178 1111.9451983 -374.03385283 1036.24552947 -321.45330415 977.39160402 C-320.6747104 976.51375246 -319.89611665 975.6359009 -319.09392915 974.73144777 C-316.89492079 972.2712097 -314.67731939 969.8292468 -312.45330415 967.39160402 C-311.56771821 966.41320559 -310.68213227 965.43480715 -309.7697104 964.42676027 C-302.38342731 956.2874316 -294.88385914 948.34636233 -286.5275229 941.18847902 C-284.25172697 939.21697973 -282.04407748 937.18026007 -279.82830415 935.14160402 C-273.62379256 929.5584851 -267.08968842 924.44394277 -260.45330415 919.39160402 C-259.7346518 918.84310793 -259.01599946 918.29461184 -258.27556977 917.72949465 C-196.0549804 870.46321002 -122.37486709 842.33028516 -44.75213227 834.70117434 C-42.29773027 834.4435171 -42.29773027 834.4435171 -39.45330415 833.39160402 C-40.31681489 833.29661623 -41.18032563 833.20162844 -42.07000337 833.10376223 C-89.21153181 827.8453566 -134.6403371 817.39481632 -177.95916352 797.53369387 C-180.24690518 796.486116 -182.54336613 795.46140184 -184.84392915 794.44238527 C-216.13624012 780.38330746 -245.33676627 760.93764321 -271.58562837 738.95068606 C-273.31278183 737.50890801 -275.05506616 736.08790715 -276.8009604 734.66894777 C-285.9859986 727.07406348 -294.38955206 718.66775879 -302.82830415 710.26660402 C-303.4344455 709.6657297 -304.04058686 709.06485537 -304.66509614 708.44577273 C-312.08034787 701.08035265 -318.95923999 693.59012449 -325.45330415 685.39160402 C-326.38779888 684.28953431 -327.32918291 683.193216 -328.28142915 682.10644777 C-376.50195402 626.80839425 -406.71839416 554.09318052 -418.20330415 482.20410402 C-418.40214204 480.97135744 -418.60097993 479.73861086 -418.80584321 478.46850832 C-421.89672595 458.13786925 -422.83329798 437.87385724 -422.76580415 417.32910402 C-422.76398133 416.17039797 -422.76215852 415.01169191 -422.76028046 413.81787356 C-422.71277064 395.82913858 -422.13492439 378.20596522 -419.45330415 360.39160402 C-419.27638032 359.1932593 -419.09945649 357.99491457 -418.91717133 356.76025637 C-408.66581281 289.09951957 -383.08889879 222.41015452 -340.82635102 168.16162356 C-339.50381919 166.45672388 -338.20193632 164.73818802 -336.90642915 163.01269777 C-320.32550389 141.00439243 -300.98136323 118.33626486 -279.1056479 101.50879152 C-276.72937939 99.61197631 -274.48996109 97.63965159 -272.23455415 95.60254152 C-267.6736349 91.52506371 -262.92249636 87.79181161 -258.01580415 84.14160402 C-257.14890962 83.49538088 -256.28201508 82.84915773 -255.38885102 82.18335207 C-202.84115885 43.32274542 -142.33707951 17.14519151 -78.01580415 5.64160402 C-76.98334565 5.45477053 -75.95088715 5.26793703 -74.88714204 5.07544191 C-49.93404912 0.89498625 -25.22934305 -0.05667543 0 0 Z M411.54669585 834.39160402 C411.54669585 959.79160402 411.54669585 1085.19160402 411.54669585 1214.39160402 C411.87669585 1214.39160402 412.20669585 1214.39160402 412.54669585 1214.39160402 C412.63644683 1213.57933352 412.72619781 1212.76706301 412.81866851 1211.93017824 C422.039262 1130.00124356 450.86400897 1052.51440326 503.54669585 988.39160402 C503.99609527 987.84455813 504.44549468 987.29751223 504.90851226 986.73388918 C514.56624591 975.04114532 524.84249089 964.001569 535.52240386 953.24066408 C536.52158446 952.2334417 537.51928026 951.22474372 538.51532378 950.21441897 C545.17516172 943.46931394 552.13327573 937.3102262 559.54669585 931.39160402 C560.64841163 930.45669204 561.74475774 929.51535292 562.8318521 928.56347902 C625.24324031 874.14004627 708.71373858 842.82088334 790.54669585 835.39160402 C790.54669585 835.06160402 790.54669585 834.73160402 790.54669585 834.39160402 C665.47669585 834.39160402 540.40669585 834.39160402 411.54669585 834.39160402 Z " fill="#A259FE" transform="translate(422.4533041464165,-0.3916040239855647)"/>
<path d="M0 0 C4.54712653 0.00681638 9.09422107 -0.00400872 13.64134034 -0.01239584 C21.58112775 -0.02467453 29.52085598 -0.02601365 37.46064963 -0.01984541 C49.26843064 -0.01069708 61.0761576 -0.01883203 72.88393449 -0.03013665 C93.98332611 -0.04974089 115.08269309 -0.05216294 136.18209166 -0.04694145 C154.65157018 -0.04237341 173.12103898 -0.04299696 191.59051719 -0.04878179 C194.07387439 -0.04953868 196.5572316 -0.05029466 199.0405888 -0.05104974 C202.78341013 -0.05219501 206.52623147 -0.0533449 210.26905279 -0.05450898 C245.0390994 -0.06520456 279.8091428 -0.06994899 314.5791904 -0.06203882 C316.54269965 -0.06159306 316.54269965 -0.06159306 318.54587575 -0.0611383 C329.17395766 -0.05868969 339.80203953 -0.05607794 350.43012141 -0.05345416 C391.86930444 -0.04335529 433.30844612 -0.05170417 474.74762359 -0.07494871 C521.37528357 -0.10106173 568.00291915 -0.11385838 614.63058671 -0.10676096 C619.60911252 -0.10604497 624.58763834 -0.10537058 629.56616416 -0.10472052 C631.40473117 -0.1044658 631.40473117 -0.1044658 633.28044095 -0.10420594 C651.72604963 -0.10190975 670.17163556 -0.10984738 688.61723914 -0.12301199 C709.61278181 -0.13797037 730.60827138 -0.13870362 751.60381297 -0.12094108 C763.32968235 -0.11142729 775.05542766 -0.1127114 786.78128858 -0.13017577 C794.64235012 -0.14075538 802.50331829 -0.13644002 810.36437081 -0.12069573 C814.82427763 -0.11216007 819.28394353 -0.10939705 823.74383691 -0.12496505 C915.12253242 -0.42126259 1004.30656663 26.856888 1077.54669585 82.39160402 C1078.17221343 82.86549563 1078.79773101 83.33938723 1079.44220367 83.82763918 C1096.44326195 96.78924601 1112.27885476 111.06767607 1127.42169585 126.14160402 C1128.12334869 126.838584 1128.82500152 127.53556398 1129.54791656 128.25366457 C1134.08400224 132.80377216 1138.36570921 137.51486196 1142.54669585 142.39160402 C1143.39232085 143.35582277 1144.23794585 144.32004152 1145.10919585 145.31347902 C1161.917783 164.81575001 1176.77542188 186.04058141 1189.54669585 208.39160402 C1190.21886138 209.56553713 1190.21886138 209.56553713 1190.90460601 210.76318606 C1215.99149632 254.90083165 1232.4524278 302.77092919 1240.35919585 352.89160402 C1240.55400542 354.11677736 1240.74881499 355.3419507 1240.94952788 356.60425051 C1243.93641316 376.5111172 1244.92502456 396.2756124 1244.85919585 416.39160402 C1244.85737304 417.55313997 1244.85555022 418.71467592 1244.85367217 419.91140993 C1244.80618535 437.92840338 1244.18289244 455.54519608 1241.54669585 473.39160402 C1241.37508941 474.6063843 1241.20348296 475.82116457 1241.02667632 477.07275637 C1229.9722142 553.94028965 1197.44152588 625.92531557 1147.54669585 685.39160402 C1147.13049483 685.89151354 1146.71429382 686.39142305 1146.28548064 686.90648134 C1138.99887342 695.64332533 1131.35504923 703.90114164 1123.28277984 711.91626223 C1121.47447978 713.71376207 1119.67723608 715.52182718 1117.88068023 717.33105715 C1111.78821555 723.4300221 1105.63013111 729.20246934 1098.85358062 734.54394777 C1096.6553567 736.30457415 1094.59673567 738.1495423 1092.54669585 740.07910402 C1029.85962889 796.28515515 936.99421969 831.25702066 836.58917632 834.00830324 C834.09804567 834.04625142 831.60691549 834.08423092 829.11578574 834.12223871 C798.36453483 834.56089853 767.6098452 834.53821113 736.85615263 834.52671749 C730.50305906 834.5244529 724.14996888 834.52462415 717.79687514 834.5261751 C716.39755018 834.52651521 716.39755018 834.52651521 714.96995603 834.5268622 C713.06430745 834.52733353 711.15865886 834.52780842 709.25301028 834.52828679 C686.90992996 834.53352376 664.56685669 834.5277826 642.22377774 834.51985748 C634.78991329 834.51724143 627.35604881 834.5150844 619.92218413 834.51320131 C565.26579598 834.49928125 510.60942901 834.46957468 455.95305648 834.42605837 C452.30320668 834.42315461 448.65335688 834.42025097 445.00350707 834.4173493 C442.55369392 834.41540141 440.10388078 834.41345059 437.65406763 834.41149684 C419.98466999 834.39745941 402.31527194 834.38545084 384.64587183 834.374986 C326.10641169 834.34029439 267.5670098 834.29148219 209.02760139 834.2044874 C203.94947326 834.19698103 198.87134507 834.18951334 193.79321685 834.18207033 C192.54131906 834.18022578 191.28942127 834.17838122 189.99958719 834.17648077 C171.12664045 834.14895126 152.25370429 834.13218554 133.38074126 834.12115725 C111.8291814 834.10855096 90.27769006 834.08198736 68.726172 834.03719159 C56.61912776 834.01242988 44.51218622 833.99841944 32.40511619 834.00013871 C24.26276785 834.00016944 16.12052685 833.98547239 7.97822053 833.9594272 C3.3469943 833.9450085 -1.28401175 833.93640726 -5.91525612 833.94580348 C-65.46493794 834.05279307 -123.61003004 822.45206964 -177.95916352 797.53369387 C-180.24690518 796.486116 -182.54336613 795.46140184 -184.84392915 794.44238527 C-216.13624012 780.38330746 -245.33676627 760.93764321 -271.58562837 738.95068606 C-273.31278183 737.50890801 -275.05506616 736.08790715 -276.8009604 734.66894777 C-285.9859986 727.07406348 -294.38955206 718.66775879 -302.82830415 710.26660402 C-303.4344455 709.6657297 -304.04058686 709.06485537 -304.66509614 708.44577273 C-312.08034787 701.08035265 -318.95923999 693.59012449 -325.45330415 685.39160402 C-326.38779888 684.28953431 -327.32918291 683.193216 -328.28142915 682.10644777 C-376.50195402 626.80839425 -406.71839416 554.09318052 -418.20330415 482.20410402 C-418.40214204 480.97135744 -418.60097993 479.73861086 -418.80584321 478.46850832 C-421.89672595 458.13786925 -422.83329798 437.87385724 -422.76580415 417.32910402 C-422.76398133 416.17039797 -422.76215852 415.01169191 -422.76028046 413.81787356 C-422.71277064 395.82913858 -422.13492439 378.20596522 -419.45330415 360.39160402 C-419.27638032 359.1932593 -419.09945649 357.99491457 -418.91717133 356.76025637 C-408.66581281 289.09951957 -383.08889879 222.41015452 -340.82635102 168.16162356 C-339.50381919 166.45672388 -338.20193632 164.73818802 -336.90642915 163.01269777 C-320.32550389 141.00439243 -300.98136323 118.33626486 -279.1056479 101.50879152 C-276.72937939 99.61197631 -274.48996109 97.63965159 -272.23455415 95.60254152 C-267.6736349 91.52506371 -262.92249636 87.79181161 -258.01580415 84.14160402 C-257.14890962 83.49538088 -256.28201508 82.84915773 -255.38885102 82.18335207 C-202.84115885 43.32274542 -142.33707951 17.14519151 -78.01580415 5.64160402 C-76.98334565 5.45477053 -75.95088715 5.26793703 -74.88714204 5.07544191 C-49.93404912 0.89498625 -25.22934305 -0.05667543 0 0 Z " fill="#FE7161" transform="translate(422.4533041464165,-0.3916040239855647)"/>
<path d="M0 0 C5.51693546 0.01328398 11.03386452 0.00870425 16.55081163 0.00654624 C27.21633832 0.00496376 37.88178804 0.01869272 48.54729506 0.03805023 C60.90754082 0.059804 73.26774154 0.06204284 85.62801062 0.06440471 C118.20016621 0.080102 150.77230493 0.12198577 183.34444128 0.16071819 C256.17131628 0.22259319 328.99819128 0.28446819 404.03194128 0.34821819 C404.03194128 275.23821819 404.03194128 550.12821819 404.03194128 833.34821819 C293.67787878 833.47196819 293.67787878 833.47196819 181.09444128 833.59821819 C157.90170935 833.6346342 134.70897741 833.67105022 110.81343542 833.70856975 C82.39803015 833.72663616 82.39803015 833.72663616 69.07733618 833.72999309 C59.81374457 833.73370566 50.55025074 833.74830331 41.28668676 833.77052043 C30.57684185 833.79616778 19.86708989 833.807519 9.15721412 833.80199799 C3.69070715 833.79961115 -1.77559269 833.8031181 -7.24206068 833.82507871 C-68.79838011 834.06021393 -128.16007913 823.30947589 -184.4739181 797.49030803 C-186.76165976 796.44273016 -189.0581207 795.41801601 -191.35868372 794.39899944 C-222.65099469 780.33992162 -251.85152084 760.89425737 -278.10038294 738.90730022 C-279.8275364 737.46552218 -281.56982074 736.04452131 -283.31571497 734.62556194 C-292.50075318 727.03067764 -300.90430663 718.62437296 -309.34305872 710.22321819 C-309.94920008 709.62234386 -310.55534144 709.02146953 -311.17985071 708.40238689 C-318.59510244 701.03696682 -325.47399456 693.54673865 -331.96805872 685.34821819 C-332.90255345 684.24614847 -333.84393749 683.14983016 -334.79618372 682.06306194 C-383.01670859 626.76500842 -413.23314874 554.04979468 -424.71805872 482.16071819 C-424.91689661 480.92797161 -425.1157345 479.69522502 -425.32059778 478.42512248 C-428.41148052 458.09448341 -429.34805255 437.8304714 -429.28055872 417.28571819 C-429.27873591 416.12701213 -429.27691309 414.96830608 -429.27503504 413.77448772 C-429.22752522 395.78575275 -428.64967897 378.16257938 -425.96805872 360.34821819 C-425.79113489 359.14987346 -425.61421106 357.95152873 -425.43192591 356.71687053 C-415.18056738 289.05613374 -389.60365336 222.36676868 -347.3411056 168.11823772 C-346.01857377 166.41333804 -344.71669089 164.69480219 -343.42118372 162.96931194 C-326.84025846 140.96100659 -307.49611781 118.29287902 -285.62040247 101.46540569 C-283.24413396 99.56859047 -281.00471566 97.59626576 -278.74930872 95.55915569 C-274.18838947 91.48167787 -269.43725093 87.74842577 -264.53055872 84.09821819 C-263.66366419 83.45199504 -262.79676966 82.8057719 -261.9036056 82.13996623 C-209.35591343 43.27935958 -148.85183408 17.10180567 -84.53055872 5.59821819 C-83.49810022 5.41138469 -82.46564173 5.2245512 -81.40189661 5.03205608 C-77.59993421 4.39510356 -73.78782689 3.86433255 -69.96805872 3.34821819 C-69.08670618 3.22685603 -68.20535363 3.10549387 -67.29729344 2.98045407 C-44.86262761 0.00125153 -22.59440292 -0.0685887 0 0 Z " fill="#F24D1D" transform="translate(428.96805872023106,-0.3482181876897812)"/>
<path d="M0 0 C1.86977872 -0.00043654 3.73955738 -0.00131298 5.60933572 -0.00258917 C10.72660053 -0.00481777 15.84384429 -0.00083526 20.96110642 0.0041889 C26.48720874 0.00851673 32.01330992 0.00704532 37.53941345 0.00628662 C47.10690783 0.00576287 56.67439538 0.00889419 66.24188805 0.01452446 C80.07479199 0.02265953 93.90769264 0.02525674 107.74059872 0.02651245 C130.18484055 0.02869981 152.6290788 0.03534274 175.07331848 0.04481506 C196.87279746 0.05400463 218.67227546 0.06108573 240.47175598 0.06532288 C241.14412841 0.0654544 241.81650084 0.06558593 242.50924819 0.06572144 C249.26170573 0.06704 256.01416328 0.06831581 262.76662083 0.0695603 C319.36291518 0.07999511 375.95920551 0.09763565 432.55549622 0.12025452 C432.62432861 55.21272141 432.6771091 110.30518391 432.7086922 165.39768543 C432.71244383 171.91816426 432.71632684 178.438643 432.72029114 184.9591217 C432.72107807 186.2571018 432.721865 187.55508191 432.72267578 188.89239474 C432.73569048 209.84361732 432.75932237 230.79481493 432.7869546 251.74602275 C432.81511881 273.2819617 432.83169563 294.81788767 432.8377617 316.35384429 C432.84185542 329.61719442 432.85473237 342.88047393 432.87924562 356.1438023 C432.89523918 365.26834467 432.89986617 374.39285112 432.89600035 383.51740645 C432.89409972 388.76305701 432.89678083 394.00858517 432.91311264 399.25421333 C433.17925581 489.35922519 412.97283389 576.42498623 305.84846497 716.87806702 C303.54492097 719.16745516 301.21469835 721.38621748 298.74299622 723.49525452 C295.75319148 726.06774425 292.83339728 728.70015566 289.93049622 731.37025452 C283.72927048 736.95702954 277.17371349 742.04282231 270.55549622 747.12025452 C269.92337219 747.6092926 269.29124817 748.09833069 268.63996887 748.60218811 C258.61991717 756.34231866 248.30163952 763.42734404 237.55549622 770.12025452 C236.95479309 770.49714417 236.35408997 770.87403381 235.73518372 771.26234436 C175.22865548 809.0619664 102.83108981 832.84821115 31.08283997 833.35853577 C29.93331345 833.36832962 28.78378693 833.37812347 27.59942627 833.38821411 C1.66266404 833.56359007 -23.81207368 833.30104431 -49.44450378 829.12025452 C-50.10806885 829.01370544 -50.77163391 828.90715637 -51.45530701 828.79737854 C-129.39797194 816.19139718 -204.48942459 781.39757495 -262.64372253 727.67494202 C-264.79566188 725.7120852 -266.97129186 723.8037209 -269.17887878 721.90541077 C-273.9951575 717.70343306 -278.49983497 713.21150594 -283.00700378 708.68275452 C-283.81846863 707.87515686 -284.62993347 707.0675592 -285.46598816 706.23548889 C-290.33385 701.35976932 -294.97198994 696.35940374 -299.44450378 691.12025452 C-300.29012878 690.15603577 -301.13575378 689.19181702 -302.00700378 688.19837952 C-358.14857418 623.05976258 -391.81097946 541.42485215 -400.44450378 456.12025452 C-400.58807312 454.78825012 -400.58807312 454.78825012 -400.73454285 453.42933655 C-401.84156434 441.57150951 -401.68840835 429.6435485 -401.69450378 417.74525452 C-401.69517853 416.5631842 -401.69585327 415.38111389 -401.69654846 414.16322327 C-401.67976294 395.62949332 -401.10779296 377.48803728 -398.44450378 359.12025452 C-398.19507019 357.35512512 -398.19507019 357.35512512 -397.94059753 355.55433655 C-392.01336963 314.89245547 -380.14422246 275.21232255 -362.44450378 238.12025452 C-361.9868866 237.15813049 -361.52926941 236.19600647 -361.05778503 235.20472717 C-348.17136184 208.32642782 -332.35134002 182.22860991 -313.44450378 159.12025452 C-312.72649597 158.22435608 -312.00848816 157.32845764 -311.26872253 156.40541077 C-309.01978738 153.62120508 -306.73621087 150.86936726 -304.44450378 148.12025452 C-304.02757767 147.61792801 -303.61065155 147.1156015 -303.18109131 146.59805298 C-295.77354969 137.70207157 -287.96575315 129.32485838 -279.75334167 121.16835022 C-277.8726185 119.29842311 -276.00293559 117.41792813 -274.13395691 115.53627014 C-267.20885218 108.60359687 -260.14873828 102.1870409 -252.44450378 96.12025452 C-251.41647485 95.25743654 -250.39306064 94.38902998 -249.37809753 93.51087952 C-240.80131073 86.15551306 -231.6945754 79.59675029 -222.44450378 73.12025452 C-221.81173523 72.67681702 -221.17896667 72.23337952 -220.52702332 71.77650452 C-163.77791243 32.30958687 -97.81436311 9.36648038 -29.44450378 1.12025452 C-28.73689696 1.03408058 -28.02929015 0.94790665 -27.3002407 0.85912138 C-18.21178234 -0.10963964 -9.12625838 -0.0158856 0 0 Z " fill="#09CF83" transform="translate(401.4445037841797,1666.8797454833984)"/>
<path d="M0 0 C1.06911621 0.35513672 2.13823242 0.71027344 3.23974609 1.07617188 C49.21079927 16.61919483 91.97841677 41.61506937 129.23388672 72.54248047 C130.86464981 73.88829961 132.50784417 75.21594185 134.16015625 76.53515625 C139.09908963 80.49581396 143.70457813 84.56653284 148.11328125 89.109375 C149.96484998 90.96477721 151.88253673 92.67285573 153.875 94.375 C160.84314451 100.38485352 167.26255349 106.96836096 173.23828125 113.9609375 C175.19605739 116.2269223 177.22228948 118.42143494 179.25 120.625 C184.83341199 126.82983727 189.94489374 133.36537389 195 140 C195.53786133 140.7027002 196.07572266 141.40540039 196.62988281 142.12939453 C211.2759355 161.34863698 223.80798456 181.5967565 235 203 C235.37318359 203.70785645 235.74636719 204.41571289 236.13085938 205.14501953 C260.74621829 252.05505858 274.85347702 303.40395975 280 356 C280.09571289 356.90411621 280.19142578 357.80823242 280.29003906 358.73974609 C281.37519558 370.41781934 281.24387058 382.15709806 281.25 393.875 C281.25101212 395.61259079 281.25101212 395.61259079 281.25204468 397.38528442 C281.23505673 415.77529711 280.63045427 433.77323026 278 452 C277.83371094 453.17820312 277.66742187 454.35640625 277.49609375 455.5703125 C266.14137089 533.45530043 232.57400777 609.13260271 180 668 C179.23300781 668.86625 178.46601562 669.7325 177.67578125 670.625 C175.46726477 673.09917286 173.23867071 675.55308085 171 678 C170.52530273 678.51981445 170.05060547 679.03962891 169.56152344 679.57519531 C162.07865352 687.76121745 154.62996766 695.82475004 146.2109375 703.06640625 C143.7187611 705.24595981 141.30161332 707.4977328 138.875 709.75 C132.52036359 715.53010764 125.83867778 720.80671837 119 726 C118.28279785 726.5470459 117.5655957 727.0940918 116.82666016 727.65771484 C54.09611539 775.31462517 -20.64166478 803.80179311 -99 811 C-100.02416016 811.09571289 -101.04832031 811.19142578 -102.10351562 811.29003906 C-113.01642116 812.19351106 -123.93046982 812.24340772 -134.875 812.25 C-135.88755859 812.25067474 -136.90011719 812.25134949 -137.94335938 812.25204468 C-155.8047852 812.23325168 -173.28316757 811.38857507 -191 809 C-192.85238281 808.75056641 -192.85238281 808.75056641 -194.7421875 808.49609375 C-268.8846374 798.09148799 -340.08251034 767.58446308 -398 720 C-398.5470459 719.55060059 -399.0940918 719.10120117 -399.65771484 718.63818359 C-411.52886701 708.8330919 -422.78166391 698.40538881 -433.66479492 687.52050781 C-435.19237416 685.99513287 -436.72783582 684.47799328 -438.26367188 682.9609375 C-444.62734665 676.63287876 -450.41416684 670.0365387 -456 663 C-457.55925805 661.16390858 -459.12103933 659.32995036 -460.6875 657.5 C-526.7479864 578.0640519 -556.51165963 475.45233546 -551.6875 355.7890625 C-543.8283895 274.69520504 -512.85413121 196.11432165 -461 133 C-460.55060059 132.4529541 -460.10120117 131.9059082 -459.63818359 131.34228516 C-449.8330919 119.47113299 -439.40538881 108.21833609 -428.52050781 97.33520508 C-426.99513287 95.80762584 -425.47799328 94.27216418 -423.9609375 92.73632812 C-417.63183124 86.37159671 -411.02655867 80.59940049 -404 75 C-402.89819441 74.06519387 -401.8018506 73.12384884 -400.71484375 72.171875 C-328.58092975 9.27029036 -230.1721387 -22.21685697 0 0 Z " fill="#1ABBFD" transform="translate(1386,855)"/>
</svg>
